<?xml version="1.0" encoding="utf-8"?>
<!DOCTYPE svg PUBLIC "-//W3C//DTD SVG 20010904//EN" "http://www.w3.org/TR/2001/REC-SVG-20010904/DTD/svg10.dtd">
<svg version="1.0" xmlns="http://www.w3.org/2000/svg" width="1026pt" height="1026pt" viewBox="0 0 1026 1026" style="" preserveAspectRatio="xMidYMid meet">
<g fill="#EEAA22FF" stroke="#EEAA22FF">
<path d="M 509.490 279.016 C 509.144 279.575 508.465 279.787 507.979 279.487 C 507.494 279.187 505.838 280.058 504.299 281.422 C 501.918 283.531 498.444 286.483 490.942 292.771 C 490.149 293.435 486.688 296.273 483.250 299.076 C 479.813 301.880 477.000 304.611 477.000 305.146 C 477.000 305.680 476.649 305.901 476.220 305.636 C 475.792 305.371 473.081 307.336 470.196 310.002 C 467.311 312.668 464.542 314.996 464.042 315.175 C 463.542 315.354 460.741 317.612 457.817 320.194 C 454.893 322.775 446.876 329.669 440.001 335.512 C 433.127 341.356 427.142 346.781 426.702 347.568 C 426.261 348.356 425.422 349.000 424.836 349.000 C 423.533 349.000 412.540 358.139 408.718 362.399 C 407.189 364.105 405.533 365.500 405.040 365.500 C 404.546 365.500 403.323 366.292 402.321 367.259 C 401.320 368.226 395.213 373.354 388.750 378.654 C 382.288 383.954 377.000 388.690 377.000 389.177 C 377.000 389.665 376.146 390.387 375.102 390.782 C 371.328 392.210 355.555 406.613 353.250 410.736 C 351.660 413.580 351.630 420.230 353.200 421.800 C 353.860 422.460 354.054 423.000 353.632 423.000 C 351.855 423.000 357.240 428.886 360.381 430.377 C 366.659 433.356 374.124 432.042 379.500 427.013 C 385.275 421.610 386.940 420.237 388.393 419.679 C 389.839 419.125 390.010 425.297 390.243 486.592 L 390.500 554.116 406.000 554.229 L 421.500 554.342 422.000 474.207 C 422.434 404.683 422.699 393.890 424.000 392.705 C 425.859 391.012 437.205 381.559 465.000 358.545 C 476.825 348.754 487.684 339.451 489.132 337.871 C 490.579 336.292 492.154 334.997 492.632 334.994 C 493.109 334.990 495.939 332.740 498.920 329.994 C 501.900 327.247 504.535 325.000 504.775 325.000 C 505.015 325.000 506.585 323.844 508.264 322.431 C 511.531 319.683 515.707 319.751 517.300 322.580 C 517.740 323.361 518.752 324.000 519.550 324.000 C 520.347 324.000 521.000 324.411 521.000 324.913 C 521.000 325.416 523.813 328.116 527.250 330.914 C 530.688 333.712 534.400 336.831 535.500 337.844 C 536.600 338.858 539.525 341.220 542.000 343.094 C 544.475 344.967 546.725 346.770 547.000 347.099 C 547.275 347.429 554.700 353.628 563.500 360.874 C 572.300 368.120 580.850 375.183 582.500 376.569 C 584.150 377.955 585.950 379.427 586.500 379.840 C 587.050 380.253 591.209 383.854 595.742 387.843 L 603.984 395.096 604.242 452.291 L 604.500 509.486 618.344 512.287 C 628.890 514.421 632.517 514.816 633.566 513.945 C 634.702 513.003 634.935 504.547 634.896 465.811 C 634.869 439.966 635.021 418.646 635.233 418.434 C 635.445 418.222 638.517 420.484 642.059 423.461 C 645.602 426.438 648.854 428.886 649.286 428.901 C 649.718 428.916 650.811 429.668 651.714 430.572 C 652.967 431.825 654.701 432.117 659.018 431.805 C 664.041 431.442 665.139 430.940 668.766 427.349 C 671.379 424.762 673.094 422.014 673.523 419.730 C 674.287 415.656 673.321 410.000 671.862 410.000 C 671.323 410.000 671.135 409.590 671.445 409.088 C 672.080 408.061 659.905 397.000 658.139 397.000 C 657.513 397.000 657.000 396.605 657.000 396.122 C 657.000 395.640 654.413 393.171 651.250 390.635 C 648.088 388.100 644.825 385.433 644.000 384.709 C 635.362 377.129 630.154 373.000 629.229 373.000 C 628.615 373.000 627.461 372.069 626.665 370.932 C 625.868 369.794 620.555 365.047 614.858 360.383 C 609.161 355.718 602.306 350.012 599.625 347.701 C 596.943 345.390 594.131 343.355 593.375 343.177 C 592.619 342.999 592.000 342.491 592.000 342.049 C 592.000 341.607 589.413 339.141 586.250 336.570 C 579.626 331.184 578.670 330.386 570.324 323.268 C 566.927 320.370 563.765 318.000 563.297 318.000 C 562.828 318.000 561.284 316.763 559.865 315.250 C 556.625 311.796 555.124 310.473 541.000 298.628 C 534.675 293.324 528.132 287.618 526.461 285.948 C 524.789 284.278 523.138 283.195 522.792 283.542 C 522.445 283.888 521.685 283.280 521.102 282.191 C 519.405 279.019 510.922 276.700 509.490 279.016 "/></g>
<g fill="#063A55FF" stroke="#063A55FF">
<path d="M 521.524 568.039 C 521.856 568.575 521.423 569.284 520.563 569.614 C 519.219 570.130 519.000 572.970 519.000 589.907 C 519.000 603.890 519.348 609.948 520.200 610.800 C 521.871 612.471 667.502 612.543 669.292 610.874 C 671.203 609.091 670.427 570.101 668.465 569.348 C 667.666 569.041 667.257 568.394 667.556 567.909 C 667.868 567.404 636.694 567.036 594.511 567.046 C 546.957 567.057 521.135 567.409 521.524 568.039 "/></g>
<g fill="#063A55FF" stroke="#063A55FF">
<path d="M 357.181 569.081 C 356.273 570.536 355.959 576.719 356.041 591.569 L 356.154 612.050 431.108 612.013 L 506.063 611.976 505.962 589.470 L 505.861 566.964 432.148 567.019 C 359.462 567.073 358.417 567.102 357.181 569.081 "/></g>
<g fill="#063A55FF" stroke="#063A55FF">
<path d="M 522.000 506.338 L 519.500 507.562 519.335 530.250 L 519.169 552.937 576.585 552.984 L 634.000 553.030 634.000 542.050 C 634.000 532.218 633.798 530.962 632.066 530.035 C 631.002 529.466 629.175 529.000 628.007 529.000 C 626.838 529.000 626.110 528.631 626.388 528.181 C 626.667 527.730 625.456 527.563 623.697 527.809 C 621.939 528.054 620.816 527.919 621.202 527.509 C 621.588 527.099 619.790 526.596 617.206 526.393 C 614.622 526.189 612.372 525.615 612.206 525.118 C 612.040 524.620 611.026 524.442 609.952 524.723 C 608.833 525.015 608.000 524.731 608.000 524.058 C 608.000 523.411 607.555 523.157 607.011 523.493 C 605.631 524.346 594.000 521.948 594.000 520.811 C 594.000 520.300 593.555 520.157 593.011 520.493 C 591.631 521.346 580.000 518.948 580.000 517.811 C 580.000 517.300 579.577 517.143 579.061 517.463 C 577.779 518.255 569.924 516.933 570.488 516.020 C 570.736 515.618 569.828 515.501 568.470 515.761 C 566.976 516.047 566.000 515.768 566.000 515.058 C 566.000 514.411 565.577 514.143 565.061 514.463 C 563.810 515.235 555.917 513.944 556.465 513.056 C 556.701 512.674 555.456 512.563 553.697 512.809 C 551.939 513.054 550.818 512.918 551.206 512.505 C 551.594 512.092 550.029 511.614 547.728 511.442 C 545.426 511.271 543.405 510.716 543.237 510.211 C 543.068 509.705 541.821 509.503 540.465 509.762 C 539.109 510.021 538.000 509.793 538.000 509.255 C 538.000 508.717 536.808 508.505 535.351 508.784 C 533.727 509.094 532.942 508.903 533.321 508.289 C 533.695 507.684 532.965 507.475 531.470 507.761 C 530.111 508.021 529.000 507.793 529.000 507.255 C 529.000 506.717 527.856 506.496 526.458 506.763 C 524.936 507.054 524.034 506.821 524.208 506.182 C 524.398 505.487 523.628 505.541 522.000 506.338 "/></g>
<g fill="#063A55FF" stroke="#063A55FF">
<path d="M 520.607 654.582 C 519.417 657.683 519.981 659.000 522.500 659.000 C 523.875 659.000 525.000 659.477 525.000 660.059 C 525.000 660.641 525.419 660.859 525.932 660.542 C 526.444 660.226 527.569 660.974 528.432 662.206 C 529.777 664.127 530.000 669.004 530.000 696.500 C 530.000 731.930 529.958 732.181 523.705 733.792 C 521.500 734.360 520.400 735.302 520.180 736.809 C 519.862 738.991 519.935 739.000 536.930 739.000 L 554.000 739.000 554.000 736.500 C 554.000 734.500 553.500 734.000 551.500 734.000 C 550.125 734.000 549.000 733.523 549.000 732.941 C 549.000 732.359 548.581 732.141 548.069 732.457 C 546.106 733.670 545.596 730.064 545.886 717.012 C 546.082 708.175 546.586 703.249 547.343 702.767 C 547.979 702.362 548.275 701.972 548.000 701.900 C 547.725 701.828 548.400 701.862 549.500 701.974 C 552.145 702.245 555.769 705.670 557.990 710.000 C 558.978 711.925 559.834 713.838 559.893 714.250 C 559.952 714.663 560.010 714.663 560.023 714.250 C 560.035 713.838 561.591 716.369 563.481 719.875 C 565.370 723.382 566.882 726.532 566.840 726.875 C 566.798 727.219 566.816 727.310 566.882 727.079 C 566.947 726.847 568.403 728.775 570.117 731.364 C 573.167 735.967 577.294 739.000 580.509 739.000 C 581.394 739.000 581.908 739.338 581.652 739.750 C 581.396 740.163 584.407 740.275 588.343 740.000 C 595.265 739.516 595.510 739.410 595.816 736.750 C 596.071 734.541 595.729 734.000 594.082 734.000 C 591.521 734.000 586.015 729.176 585.522 726.500 C 585.319 725.400 585.119 724.938 585.077 725.473 C 584.971 726.814 581.882 722.280 581.480 720.193 C 581.300 719.262 581.117 718.950 581.074 719.500 C 581.030 720.050 579.381 717.800 577.410 714.500 C 575.438 711.200 572.227 706.842 570.274 704.817 C 567.051 701.473 566.869 700.989 568.291 699.567 C 569.152 698.705 570.458 698.000 571.193 698.000 C 571.928 698.000 574.098 697.159 576.015 696.132 C 577.932 695.105 579.838 694.205 580.250 694.132 C 580.663 694.059 580.728 694.000 580.396 694.000 C 580.064 694.000 581.189 692.409 582.896 690.465 C 584.603 688.521 586.000 686.196 586.000 685.299 C 586.000 684.401 586.329 683.995 586.730 684.397 C 587.132 684.799 587.318 683.473 587.144 681.451 C 586.933 678.997 587.188 677.998 587.914 678.447 C 588.518 678.820 589.000 678.426 589.000 677.559 C 589.000 676.702 588.550 676.000 588.000 676.000 C 587.450 676.000 587.000 674.679 587.000 673.065 C 587.000 664.343 579.635 657.085 569.070 655.395 C 566.807 655.033 564.714 654.346 564.419 653.869 C 564.124 653.391 554.282 653.000 542.548 653.000 C 524.017 653.000 521.134 653.208 520.607 654.582 M 562.282 660.362 C 566.400 662.105 569.039 665.084 569.391 668.390 C 569.544 669.824 569.969 670.698 570.335 670.332 C 570.701 669.966 571.000 672.596 571.000 676.176 C 571.000 681.058 570.419 683.787 568.675 687.093 C 566.095 691.982 559.884 696.279 556.280 695.666 C 555.059 695.459 554.298 695.674 554.589 696.144 C 554.880 696.615 553.516 697.000 551.559 697.000 C 549.602 697.000 548.000 696.523 548.000 695.941 C 548.000 695.359 547.588 695.136 547.085 695.447 C 545.595 696.369 545.486 694.824 545.795 677.077 C 546.126 658.064 545.529 659.328 554.282 659.116 C 556.912 659.052 560.512 659.613 562.282 660.362 "/></g>
<g fill="#063A55FF" stroke="#063A55FF">
<path d="M 501.473 505.956 C 502.029 506.857 490.211 509.248 488.976 508.485 C 488.439 508.153 488.000 508.411 488.000 509.058 C 488.000 509.741 487.162 510.014 486.000 509.710 C 484.900 509.423 484.000 509.648 484.000 510.210 C 484.000 510.773 482.875 511.018 481.500 510.755 C 480.125 510.492 479.000 510.576 479.000 510.942 C 479.000 511.751 461.953 515.929 456.776 516.389 C 454.728 516.570 453.341 517.007 453.693 517.360 C 454.275 517.941 451.275 518.369 446.750 518.349 C 445.788 518.345 445.000 518.714 445.000 519.171 C 445.000 519.627 443.988 520.007 442.750 520.015 C 438.288 520.046 438.066 520.817 437.776 537.343 L 437.500 553.101 471.750 553.026 L 506.000 552.952 506.000 529.592 L 506.000 506.233 503.530 505.761 C 502.172 505.501 501.246 505.589 501.473 505.956 "/></g>
<g fill="#063A55FF" stroke="#063A55FF">
<path d="M 464.736 653.384 C 465.037 653.871 463.894 654.065 462.195 653.815 C 460.496 653.566 459.303 653.681 459.544 654.071 C 459.785 654.461 458.440 655.070 456.555 655.424 C 451.757 656.324 441.686 663.302 438.050 668.246 C 436.373 670.527 434.966 671.968 434.923 671.447 C 434.881 670.926 434.691 671.175 434.500 672.000 C 433.939 674.419 429.553 684.475 428.927 684.774 C 428.612 684.925 428.550 686.388 428.790 688.024 C 429.030 689.661 428.838 691.000 428.363 690.999 C 427.387 690.999 427.481 702.624 428.477 705.136 C 428.834 706.035 429.210 708.396 429.313 710.381 C 429.416 712.367 429.789 713.993 430.142 713.996 C 430.494 713.998 431.053 715.073 431.382 716.385 C 431.711 717.697 433.529 721.072 435.423 723.885 C 437.316 726.698 438.615 729.000 438.310 729.000 C 438.005 729.000 438.311 729.670 438.991 730.489 C 439.671 731.308 440.595 731.750 441.045 731.472 C 441.495 731.194 442.578 731.987 443.451 733.233 C 444.324 734.480 445.255 735.388 445.519 735.250 C 446.639 734.668 448.271 735.063 447.583 735.750 C 447.171 736.163 447.208 736.501 447.667 736.501 C 448.861 736.503 460.403 740.394 461.000 740.996 C 461.738 741.740 483.003 741.610 483.001 740.861 C 483.000 740.332 486.382 739.359 491.500 738.415 C 492.050 738.314 492.388 738.111 492.250 737.965 C 492.113 737.819 492.563 737.655 493.250 737.600 C 495.175 737.446 504.000 728.186 504.000 726.320 C 504.000 725.411 504.288 724.955 504.640 725.307 C 504.993 725.659 505.419 724.407 505.588 722.525 C 505.821 719.932 505.457 718.962 504.089 718.528 C 502.015 717.870 498.791 718.852 499.462 719.938 C 499.709 720.338 498.811 722.286 497.466 724.265 C 494.014 729.345 483.462 734.497 478.440 733.555 C 475.973 733.092 475.015 733.215 475.461 733.936 C 475.822 734.521 475.641 735.000 475.059 735.000 C 474.477 735.000 473.999 734.663 473.997 734.250 C 473.995 733.838 472.083 733.478 469.747 733.452 C 464.929 733.397 457.687 730.315 458.663 728.736 C 459.018 728.161 458.861 727.968 458.313 728.307 C 455.684 729.931 446.037 714.952 447.410 711.375 C 447.766 710.446 447.559 710.154 446.854 710.590 C 446.083 711.067 445.876 710.301 446.192 708.142 C 446.446 706.414 446.282 705.000 445.827 705.000 C 445.372 705.000 445.000 700.923 445.000 695.941 C 445.000 690.959 445.385 687.120 445.856 687.411 C 446.326 687.702 446.499 686.828 446.239 685.470 C 445.979 684.111 446.227 683.000 446.790 683.000 C 447.352 683.000 447.563 681.988 447.259 680.750 C 446.954 679.513 447.071 678.837 447.518 679.249 C 447.965 679.660 448.454 678.837 448.606 677.419 C 448.757 676.000 450.691 672.442 452.904 669.511 C 457.454 663.485 466.159 658.415 470.523 659.249 C 471.911 659.515 473.248 659.407 473.494 659.010 C 474.333 657.651 484.160 659.904 488.508 662.452 C 493.401 665.320 497.297 669.711 496.332 671.272 C 495.976 671.848 496.172 672.012 496.773 671.640 C 497.851 670.974 499.439 674.118 499.481 677.000 C 499.493 677.825 500.065 678.455 500.751 678.400 C 501.747 678.320 501.747 678.249 500.750 678.050 C 500.063 677.913 500.625 677.489 502.000 677.109 C 504.159 676.511 504.572 675.704 505.030 671.188 C 505.321 668.312 505.233 665.631 504.833 665.230 C 504.434 664.828 504.000 662.669 503.869 660.431 C 503.630 656.361 502.307 655.456 499.307 657.310 C 498.154 658.023 493.005 656.211 492.995 655.089 C 492.992 654.765 491.109 654.392 488.809 654.259 C 486.510 654.127 484.375 653.677 484.065 653.259 C 483.265 652.184 464.068 652.309 464.736 653.384 "/></g>
<g fill="#EEAA22FF" stroke="#EEAA22FF">
<path d="M 469.046 409.306 C 468.982 419.397 469.219 428.407 469.572 429.327 C 470.140 430.807 472.339 431.000 488.666 431.000 C 500.713 431.000 506.903 430.653 506.500 430.000 C 506.160 429.450 506.246 429.000 506.691 429.000 C 507.136 429.001 507.412 420.563 507.305 410.250 L 507.111 391.500 488.136 391.229 L 469.162 390.957 469.046 409.306 "/></g>
<g fill="#EEAA22FF" stroke="#EEAA22FF">
<path d="M 519.229 410.728 L 519.500 430.500 538.192 430.772 L 556.884 431.044 556.692 411.272 L 556.500 391.500 537.729 391.228 L 518.958 390.956 519.229 410.728 "/></g>
<g fill="#EEAA22FF" stroke="#EEAA22FF">
<path d="M 469.229 461.568 L 469.500 481.178 487.492 481.047 C 497.388 480.975 505.904 480.496 506.417 479.983 C 506.938 479.462 507.274 470.991 507.179 460.776 L 507.010 442.500 487.984 442.228 L 468.958 441.957 469.229 461.568 "/></g>
<g fill="#EEAA22FF" stroke="#EEAA22FF">
<path d="M 519.000 461.500 L 519.000 481.044 537.750 480.772 L 556.500 480.500 556.500 461.500 L 556.500 442.500 537.750 442.228 L 519.000 441.956 519.000 461.500 "/></g>
<g fill="#00000CFF" stroke="#00000CFF">
<path d="M 355.607 569.582 C 354.402 572.723 354.933 610.533 356.200 611.800 C 357.112 612.712 375.356 613.000 432.200 613.000 C 473.340 613.000 507.000 612.663 507.000 612.250 C 507.000 611.838 473.138 611.500 431.750 611.500 L 356.500 611.500 356.229 591.128 C 356.040 576.945 356.305 570.337 357.101 569.378 C 357.806 568.529 357.855 568.000 357.229 568.000 C 356.671 568.000 355.941 568.712 355.607 569.582 "/></g>
<g fill="#00000CFF" stroke="#00000CFF">
<path d="M 503.750 505.706 L 506.000 506.139 506.000 529.570 L 506.000 553.000 472.000 553.000 L 438.000 553.000 438.000 537.019 L 438.000 521.038 440.750 520.432 C 445.187 519.453 445.657 519.163 442.941 519.079 C 437.260 518.904 436.921 519.998 437.223 537.506 L 437.500 553.500 472.250 553.763 L 507.000 554.026 507.000 529.513 L 507.000 505.000 504.250 505.136 C 501.892 505.253 501.821 505.334 503.750 505.706 "/></g>
<g fill="#00000CFF" stroke="#00000CFF">
<path d="M 519.926 611.256 C 521.176 612.908 525.680 612.997 595.378 612.756 C 653.937 612.554 669.479 612.238 669.400 611.250 C 669.345 610.563 669.233 610.450 669.150 611.000 C 668.910 612.602 521.798 612.355 519.998 610.750 C 518.805 609.686 518.794 609.761 519.926 611.256 "/></g>
<g fill="#00000CFF" stroke="#00000CFF">
<path d="M 627.750 528.640 L 634.000 530.173 634.000 541.579 L 634.000 552.984 576.750 553.250 L 519.500 553.517 577.250 553.758 L 635.000 554.000 635.000 541.975 C 635.000 528.387 635.298 528.861 626.000 527.678 C 622.446 527.226 622.814 527.429 627.750 528.640 "/></g>
<g fill="#00000CFF" stroke="#00000CFF">
<path d="M 527.420 661.973 C 529.789 665.680 529.789 727.320 527.420 731.027 L 525.840 733.500 527.920 731.139 C 529.935 728.852 530.000 727.770 530.000 696.500 C 530.000 665.230 529.935 664.148 527.920 661.861 L 525.840 659.500 527.420 661.973 "/></g>
<g fill="#00000CFF" stroke="#00000CFF">
<path d="M 506.039 589.249 L 506.578 610.500 506.789 589.250 C 506.905 577.563 506.663 567.999 506.250 567.999 C 505.838 567.998 505.743 577.561 506.039 589.249 "/></g>
<g fill="#00000CFF" stroke="#00000CFF">
<path d="M 451.214 656.480 C 448.307 657.834 443.558 661.317 440.660 664.221 C 435.636 669.256 428.973 680.529 429.024 683.910 C 429.037 684.784 430.083 682.984 431.348 679.909 C 436.019 668.553 444.374 660.007 454.782 655.938 C 457.377 654.923 458.825 654.077 458.000 654.057 C 457.175 654.036 454.121 655.127 451.214 656.480 "/></g>
<g fill="#00000CFF" stroke="#00000CFF">
<path d="M 582.608 722.913 C 585.563 728.244 591.432 734.000 593.912 734.000 C 595.745 734.000 596.078 734.480 595.816 736.750 C 595.512 739.394 595.229 739.522 588.500 740.073 L 581.500 740.647 588.000 740.808 C 595.729 741.000 597.271 740.239 596.830 736.449 C 596.571 734.221 595.823 733.441 593.329 732.800 C 591.125 732.233 589.014 730.385 586.406 726.742 C 581.555 719.967 580.239 718.640 582.608 722.913 "/></g>
<g fill="#EEB446FF" stroke="#EEB446FF">
<path d="M 507.150 480.000 C 507.058 480.614 500.050 481.092 489.000 481.237 L 471.000 481.474 489.250 481.487 C 503.243 481.497 507.477 481.208 507.400 480.250 C 507.345 479.563 507.233 479.450 507.150 480.000 "/></g>
<g fill="#00000CFF" stroke="#00000CFF">
<path d="M 551.250 733.716 C 553.371 734.038 554.000 734.682 554.000 736.535 C 554.000 738.916 553.901 738.939 542.250 739.253 L 530.500 739.570 542.750 739.785 L 555.000 740.000 555.000 736.500 C 555.000 733.187 554.826 733.008 551.750 733.150 C 548.725 733.289 548.690 733.329 551.250 733.716 "/></g>
<g fill="#00000CFF" stroke="#00000CFF">
<path d="M 569.500 655.322 C 579.663 658.004 584.533 662.109 586.580 669.721 C 587.287 672.350 587.895 673.517 587.933 672.315 C 588.182 664.248 579.079 655.766 568.842 654.528 L 564.500 654.002 569.500 655.322 "/></g>
<g fill="#00000CFF" stroke="#00000CFF">
<path d="M 446.066 707.712 C 445.919 712.632 450.254 721.467 455.037 726.000 C 459.114 729.864 459.255 729.935 456.031 726.500 C 451.546 721.722 449.455 717.843 447.550 710.770 C 446.770 707.871 446.102 706.496 446.066 707.712 "/></g>
</svg>
